<svg version="1.1" id="Layer_1" xmlns="http://www.w3.org/2000/svg" xmlns:xlink="http://www.w3.org/1999/xlink" x="0px" y="0px"
	 width="100%" viewBox="0 0 531 531" enable-background="new 0 0 531 531" xml:space="preserve">
<path fill="#FFFFFF" opacity="1.000000" stroke="none" 
	d="
M336.000000,532.000000 
	C224.026230,532.000000 112.552460,532.000000 1.039347,532.000000 
	C1.039347,355.067871 1.039347,178.135742 1.039347,1.101809 
	C177.890427,1.101809 354.780945,1.101809 531.835693,1.101809 
	C531.835693,177.999878 531.835693,354.999939 531.835693,532.000000 
	C466.802368,532.000000 401.651184,532.000000 336.000000,532.000000 
M313.591675,411.933044 
	C314.068634,411.641968 314.545593,411.350922 315.688202,410.975616 
	C316.130737,410.918182 316.573303,410.860779 317.525238,410.849518 
	C317.705627,410.573700 317.886047,410.297913 318.534180,409.940643 
	C318.534180,409.940643 318.987610,409.800049 319.566986,409.819183 
	C320.035370,409.482452 320.503723,409.145752 321.632690,408.922821 
	C322.417511,408.553467 323.202362,408.184143 324.592438,407.955444 
	C325.074402,407.668701 325.556366,407.381958 326.747986,406.980957 
	C328.835358,405.927399 330.922729,404.873840 333.527954,403.863678 
	C333.722107,403.588440 333.916260,403.313232 334.831665,402.956848 
	C349.853821,396.239838 362.752350,386.496094 374.424194,375.041290 
	C383.137878,366.489655 390.626556,357.014038 397.050171,346.562286 
	C409.430786,326.417938 417.080841,304.640900 418.765961,281.192993 
	C419.969421,264.447815 419.365326,247.596451 415.057098,231.059280 
	C408.314941,205.179306 395.878052,182.666779 377.682404,163.016876 
	C366.481018,150.920258 352.669434,142.680740 338.913544,133.470459 
	C338.608215,133.373947 338.302856,133.277420 337.363556,132.902542 
	C335.930634,132.257736 334.497742,131.612915 332.738739,130.332657 
	C330.147003,129.294357 327.555237,128.256042 324.158600,127.099709 
	C317.378937,125.070244 310.599304,123.040779 303.860199,120.503426 
	C303.570923,120.404427 303.281647,120.305420 302.250427,120.101959 
	C301.503326,120.058914 300.756226,120.015869 299.872925,119.474136 
	C299.569305,119.388748 299.265717,119.303360 298.179626,119.104233 
	C297.126526,119.066948 296.073456,119.029671 294.889862,118.496475 
	C294.592407,118.404762 294.294922,118.313042 293.171417,118.108253 
	C291.783417,118.063980 290.395447,118.019714 288.777954,117.383240 
	C288.174957,117.320114 287.571930,117.256989 286.091553,117.080177 
	C283.729340,117.051033 281.367126,117.021896 278.656982,116.328758 
	C277.424927,116.300438 276.192841,116.272125 274.039276,116.127449 
	C269.038879,116.158394 264.038452,116.189339 258.421326,116.060951 
	C257.945190,116.369568 257.469086,116.678185 256.111206,117.077553 
	C253.751114,117.114891 251.391022,117.152229 248.412369,117.039474 
	C247.937958,117.349716 247.463531,117.659950 246.161758,118.067551 
	C244.776489,118.116714 243.391235,118.165871 241.494247,118.150810 
	C241.319046,118.429977 241.143860,118.709152 240.184540,119.074974 
	C239.135834,119.122917 238.087128,119.170868 236.524155,119.147858 
	C236.347168,119.426018 236.170181,119.704185 235.256058,120.074921 
	C234.516220,120.124268 233.776382,120.173607 232.424515,120.062180 
	C231.945877,120.363861 231.467239,120.665543 230.338028,121.062027 
	C229.903534,121.113457 229.469040,121.164879 228.419220,121.059464 
	C227.944489,121.367447 227.469742,121.675430 226.214493,122.072243 
	C222.811295,123.118134 219.408112,124.164024 215.492203,125.148117 
	C215.314987,125.427078 215.137787,125.706039 214.236572,126.084213 
	C205.021225,130.756546 195.558914,135.004379 186.642944,140.191330 
	C169.147751,150.369324 154.938797,164.357422 143.689301,181.038239 
	C134.077866,195.290115 125.571533,210.217575 122.630783,227.654327 
	C121.209328,236.082611 117.715408,244.302994 117.281944,252.726700 
	C116.393616,269.989716 116.436699,287.309540 120.951668,304.331879 
	C127.307228,328.293640 138.477371,349.619354 154.786285,368.210388 
	C165.624908,380.565735 178.341644,390.804108 192.704193,398.732422 
	C200.088425,402.808624 208.160477,405.638794 216.241257,409.634979 
	C217.486572,410.027802 218.731873,410.420624 220.445312,410.948273 
	C220.445312,410.948273 220.926437,411.024719 221.085938,411.514587 
	C221.384506,411.615845 221.683060,411.717102 222.749374,411.946014 
	C224.481491,412.303009 226.213608,412.660004 228.091202,413.509979 
	C228.388580,413.610809 228.685959,413.711670 229.794678,413.942200 
	C234.869003,414.909424 239.943329,415.876648 245.756744,416.988098 
	C247.175949,417.266846 248.595169,417.545624 250.808044,417.944092 
	C251.874512,417.897583 252.940979,417.851074 254.499054,417.920837 
	C254.662216,417.879303 254.825394,417.837738 255.647095,417.918884 
	C256.091400,417.959900 256.535675,418.000946 257.448486,418.766357 
	C265.953461,418.444885 274.458466,418.123444 283.713165,417.928925 
	C284.469940,417.888763 285.226715,417.848602 286.595398,417.949890 
	C287.071594,417.650330 287.547791,417.350739 288.852692,416.969513 
	C290.237427,416.924042 291.622192,416.878540 293.529724,416.874359 
	C293.719574,416.593872 293.909454,416.313416 294.913666,415.974945 
	C296.271088,415.924225 297.628540,415.873505 299.490570,415.885925 
	C299.670319,415.615448 299.850067,415.344940 300.830688,414.989075 
	C302.891174,414.597748 304.951630,414.206421 307.526917,413.859253 
	C307.708160,413.580231 307.889404,413.301178 308.811554,412.972534 
	C310.203094,412.580627 311.594604,412.188721 313.591675,411.933044 
z"/>
<path fill="#FED811" opacity="1.000000" stroke="none" 
	d="
M339.077087,133.967850 
	C352.669434,142.680740 366.481018,150.920258 377.682404,163.016876 
	C395.878052,182.666779 408.314941,205.179306 415.057098,231.059280 
	C419.365326,247.596451 419.969421,264.447815 418.765961,281.192993 
	C417.080841,304.640900 409.430786,326.417938 397.050171,346.562286 
	C390.626556,357.014038 383.137878,366.489655 374.424194,375.041290 
	C362.752350,386.496094 349.853821,396.239838 334.245483,403.060486 
	C333.369141,403.309875 333.152740,403.528564 333.010132,403.820282 
	C330.922729,404.873840 328.835358,405.927399 326.242432,406.799133 
	C325.153656,407.016510 324.570435,407.415649 323.987183,407.814789 
	C323.202362,408.184143 322.417511,408.553467 321.120117,408.673004 
	C320.067566,408.882141 319.527588,409.341095 318.987610,409.800049 
	C318.987610,409.800049 318.534180,409.940643 318.083191,410.047607 
	C317.354919,410.302582 317.149445,410.518829 317.015839,410.803345 
	C316.573303,410.860779 316.130737,410.918182 315.204773,410.781799 
	C314.142914,410.990906 313.564514,411.393829 312.986084,411.796814 
	C311.594604,412.188721 310.203094,412.580627 308.222137,413.065186 
	C307.353760,413.308838 307.146881,413.527893 307.012115,413.815094 
	C304.951630,414.206421 302.891174,414.597748 300.313049,414.853394 
	C299.525604,415.086090 299.255798,415.454437 298.985962,415.822784 
	C297.628540,415.873505 296.271088,415.924225 294.281250,416.070312 
	C293.361755,416.317780 293.147766,416.540253 293.006927,416.833069 
	C291.622192,416.878540 290.237427,416.924042 288.286133,416.774506 
	C287.140900,416.989136 286.562195,417.398804 285.983490,417.808441 
	C285.226715,417.848602 284.469940,417.888763 283.030884,417.616943 
	C274.596466,417.208954 266.844360,417.085907 259.091949,417.062622 
	C258.388947,417.060486 257.684021,417.700256 256.979980,418.041962 
	C256.535675,418.000946 256.091400,417.959900 255.222595,417.718933 
	C254.534546,417.614166 254.270996,417.709381 254.007446,417.804565 
	C252.940979,417.851074 251.874512,417.897583 250.331848,417.548096 
	C248.242981,417.049347 246.630310,416.946594 245.017654,416.843872 
	C239.943329,415.876648 234.869003,414.909424 229.264221,413.688477 
	C228.519867,413.203522 228.257187,413.064270 227.945709,413.017029 
	C226.213608,412.660004 224.481491,412.303009 222.238525,411.691772 
	C221.509857,411.204376 221.242767,411.066772 220.926437,411.024719 
	C220.926437,411.024719 220.445312,410.948273 220.031555,410.595459 
	C218.385788,409.839081 217.153748,409.435547 215.921722,409.032013 
	C208.160477,405.638794 200.088425,402.808624 192.704193,398.732422 
	C178.341644,390.804108 165.624908,380.565735 154.786285,368.210388 
	C138.477371,349.619354 127.307228,328.293640 120.951668,304.331879 
	C116.436699,287.309540 116.393616,269.989716 117.281944,252.726700 
	C117.715408,244.302994 121.209328,236.082611 122.630783,227.654327 
	C125.571533,210.217575 134.077866,195.290115 143.689301,181.038239 
	C154.938797,164.357422 169.147751,150.369324 186.642944,140.191330 
	C195.558914,135.004379 205.021225,130.756546 214.815857,125.972412 
	C215.668686,125.709579 215.871948,125.492683 216.004913,125.209915 
	C219.408112,124.164024 222.811295,123.118134 226.750732,122.264526 
	C227.869492,122.043312 228.452011,121.629807 229.034546,121.216309 
	C229.469040,121.164879 229.903534,121.113457 230.809509,121.250122 
	C231.866180,121.033134 232.451370,120.628052 233.036560,120.222961 
	C233.776382,120.173607 234.516220,120.124268 235.739960,120.205841 
	C236.495377,119.964111 236.766907,119.591461 237.038422,119.218811 
	C238.087128,119.170868 239.135834,119.122917 240.791901,118.967880 
	C241.671478,118.711266 241.873703,118.496010 242.005966,118.215027 
	C243.391235,118.165871 244.776489,118.116714 246.723022,118.256241 
	C247.866501,118.026482 248.448715,117.608025 249.030930,117.189575 
	C251.391022,117.152229 253.751114,117.114891 256.700531,117.266769 
	C257.872589,117.044083 258.455322,116.632179 259.038055,116.220284 
	C264.038452,116.189339 269.038879,116.158394 274.581329,116.508057 
	C276.417236,116.923355 277.711060,116.958054 279.004913,116.992752 
	C281.367126,117.021896 283.729340,117.051033 286.576660,117.418213 
	C287.710327,117.829308 288.358887,117.902374 289.007446,117.975449 
	C290.395447,118.019714 291.783417,118.063980 293.707153,118.350204 
	C294.452148,118.822449 294.711304,118.955864 295.020355,118.992393 
	C296.073456,119.029671 297.126526,119.066948 298.590454,119.381119 
	C299.337250,119.762947 299.673187,119.867882 300.009125,119.972824 
	C300.756226,120.015869 301.503326,120.058914 302.719116,120.325699 
	C303.357269,120.759705 303.567871,120.913666 303.819641,121.011307 
	C310.599304,123.040779 317.378937,125.070244 324.638000,127.493790 
	C327.766571,128.914612 330.415680,129.941360 333.064819,130.968094 
	C334.497742,131.612915 335.930634,132.257736 337.812012,133.233093 
	C338.479584,133.805557 338.751801,133.940292 339.077087,133.967850 
M162.266693,339.627502 
	C168.871933,349.711914 177.072769,358.289673 186.369858,365.953705 
	C199.752808,376.985931 214.632111,385.070496 231.241531,390.040955 
	C245.880585,394.421753 260.896515,396.184021 276.021393,394.820648 
	C286.494659,393.876617 297.134644,392.271332 307.141724,389.163513 
	C331.678162,381.543488 352.062073,367.348358 368.250000,347.263855 
	C377.737366,335.492859 384.792969,322.359711 389.751862,308.157898 
	C395.177094,292.620544 397.347687,276.428223 395.792847,260.118408 
	C394.701660,248.671936 392.747101,237.069336 389.279938,226.138519 
	C382.519836,204.825928 370.149597,186.738846 353.317291,171.948227 
	C348.272278,167.515152 342.462860,163.951965 336.688171,159.379410 
	C330.995697,156.351151 325.420563,153.072464 319.589630,150.339600 
	C298.545441,140.476486 276.123932,138.331100 253.401611,140.291977 
	C236.275284,141.769958 220.208618,147.560944 205.061096,155.908096 
	C187.552795,165.556152 173.357849,178.943146 162.148361,195.151535 
	C150.425308,212.102509 142.872040,230.945862 140.780106,251.789780 
	C139.411758,265.423920 139.410416,278.968933 142.114838,292.368896 
	C145.517929,309.230652 151.709732,325.017090 162.266693,339.627502 
M226.516098,410.411224 
	C226.516098,410.411224 226.583298,410.523071 226.516098,410.411224 
z"/>
<path fill="#FBD324" opacity="1.000000" stroke="none" 
	d="
M257.214233,418.404175 
	C257.684021,417.700256 258.388947,417.060486 259.091949,417.062622 
	C266.844360,417.085907 274.596466,417.208954 282.656036,417.553467 
	C274.458466,418.123444 265.953461,418.444885 257.214233,418.404175 
z"/>
<path fill="#FBDD34" opacity="1.000000" stroke="none" 
	d="
M332.901794,130.650375 
	C330.415680,129.941360 327.766571,128.914612 325.040466,127.552803 
	C327.555237,128.256042 330.147003,129.294357 332.901794,130.650375 
z"/>
<path fill="#FBDD34" opacity="1.000000" stroke="none" 
	d="
M278.830933,116.660751 
	C277.711060,116.958054 276.417236,116.923355 275.042084,116.566238 
	C276.192841,116.272125 277.424927,116.300438 278.830933,116.660751 
z"/>
<path fill="#FBD324" opacity="1.000000" stroke="none" 
	d="
M245.387207,416.915985 
	C246.630310,416.946594 248.242981,417.049347 249.934998,417.488251 
	C248.595169,417.545624 247.175949,417.266846 245.387207,416.915985 
z"/>
<path fill="#F9D821" opacity="1.000000" stroke="none" 
	d="
M216.081482,409.333496 
	C217.153748,409.435547 218.385788,409.839081 219.797501,410.528015 
	C218.731873,410.420624 217.486572,410.027802 216.081482,409.333496 
z"/>
<path fill="#FBDD34" opacity="1.000000" stroke="none" 
	d="
M228.726883,121.137886 
	C228.452011,121.629807 227.869492,122.043312 227.140976,122.220108 
	C227.469742,121.675430 227.944489,121.367447 228.726883,121.137886 
z"/>
<path fill="#FBDD34" opacity="1.000000" stroke="none" 
	d="
M258.729675,116.140617 
	C258.455322,116.632179 257.872589,117.044083 257.141418,117.221390 
	C257.469086,116.678185 257.945190,116.369568 258.729675,116.140617 
z"/>
<path fill="#FBD324" opacity="1.000000" stroke="none" 
	d="
M286.289429,417.879150 
	C286.562195,417.398804 287.140900,416.989136 287.871796,416.815308 
	C287.547791,417.350739 287.071594,417.650330 286.289429,417.879150 
z"/>
<path fill="#F9D821" opacity="1.000000" stroke="none" 
	d="
M313.288879,411.864929 
	C313.564514,411.393829 314.142914,410.990906 314.871948,410.823914 
	C314.545593,411.350922 314.068634,411.641968 313.288879,411.864929 
z"/>
<path fill="#F9D821" opacity="1.000000" stroke="none" 
	d="
M324.289795,407.885132 
	C324.570435,407.415649 325.153656,407.016510 325.887604,406.856262 
	C325.556366,407.381958 325.074402,407.668701 324.289795,407.885132 
z"/>
<path fill="#FBDD34" opacity="1.000000" stroke="none" 
	d="
M248.721649,117.114517 
	C248.448715,117.608025 247.866501,118.026482 247.136719,118.207565 
	C247.463531,117.659950 247.937958,117.349716 248.721649,117.114517 
z"/>
<path fill="#FBDD34" opacity="1.000000" stroke="none" 
	d="
M288.892700,117.679337 
	C288.358887,117.902374 287.710327,117.829308 287.015350,117.475060 
	C287.571930,117.256989 288.174957,117.320114 288.892700,117.679337 
z"/>
<path fill="#FBDD34" opacity="1.000000" stroke="none" 
	d="
M232.730530,120.142578 
	C232.451370,120.628052 231.866180,121.033134 231.134796,121.202721 
	C231.467239,120.665543 231.945877,120.363861 232.730530,120.142578 
z"/>
<path fill="#F9D821" opacity="1.000000" stroke="none" 
	d="
M319.277283,409.809631 
	C319.527588,409.341095 320.067566,408.882141 320.789795,408.616089 
	C320.503723,409.145752 320.035370,409.482452 319.277283,409.809631 
z"/>
<path fill="#FBDD34" opacity="1.000000" stroke="none" 
	d="
M236.781296,119.183334 
	C236.766907,119.591461 236.495377,119.964111 236.108521,120.159561 
	C236.170181,119.704185 236.347168,119.426018 236.781296,119.183334 
z"/>
<path fill="#FBDD34" opacity="1.000000" stroke="none" 
	d="
M299.941040,119.723480 
	C299.673187,119.867882 299.337250,119.762947 298.981689,119.437988 
	C299.265717,119.303360 299.569305,119.388748 299.941040,119.723480 
z"/>
<path fill="#FBD324" opacity="1.000000" stroke="none" 
	d="
M299.238281,415.854370 
	C299.255798,415.454437 299.525604,415.086090 299.912598,414.896118 
	C299.850067,415.344940 299.670319,415.615448 299.238281,415.854370 
z"/>
<path fill="#F9D821" opacity="1.000000" stroke="none" 
	d="
M317.270538,410.826416 
	C317.149445,410.518829 317.354919,410.302582 317.849335,410.088348 
	C317.886047,410.297913 317.705627,410.573700 317.270538,410.826416 
z"/>
<path fill="#FBDD34" opacity="1.000000" stroke="none" 
	d="
M303.839905,120.757370 
	C303.567871,120.913666 303.357269,120.759705 303.090088,120.377930 
	C303.281647,120.305420 303.570923,120.404427 303.839905,120.757370 
z"/>
<path fill="#FBD324" opacity="1.000000" stroke="none" 
	d="
M254.253250,417.862701 
	C254.270996,417.709381 254.534546,417.614166 254.893326,417.657562 
	C254.825394,417.837738 254.662216,417.879303 254.253250,417.862701 
z"/>
<path fill="#FBD324" opacity="1.000000" stroke="none" 
	d="
M293.268311,416.853699 
	C293.147766,416.540253 293.361755,416.317780 293.874084,416.099304 
	C293.909454,416.313416 293.719574,416.593872 293.268311,416.853699 
z"/>
<path fill="#FBDD34" opacity="1.000000" stroke="none" 
	d="
M215.748566,125.179016 
	C215.871948,125.492683 215.668686,125.709579 215.177856,125.922806 
	C215.137787,125.706039 215.314987,125.427078 215.748566,125.179016 
z"/>
<path fill="#FBDD34" opacity="1.000000" stroke="none" 
	d="
M338.995300,133.719147 
	C338.751801,133.940292 338.479584,133.805557 338.128967,133.372269 
	C338.302856,133.277420 338.608215,133.373947 338.995300,133.719147 
z"/>
<path fill="#F9D821" opacity="1.000000" stroke="none" 
	d="
M307.269531,413.837158 
	C307.146881,413.527893 307.353760,413.308838 307.851685,413.090027 
	C307.889404,413.301178 307.708160,413.580231 307.269531,413.837158 
z"/>
<path fill="#F9D821" opacity="1.000000" stroke="none" 
	d="
M228.018463,413.263489 
	C228.257187,413.064270 228.519867,413.203522 228.858551,413.623657 
	C228.685959,413.711670 228.388580,413.610809 228.018463,413.263489 
z"/>
<path fill="#F9D821" opacity="1.000000" stroke="none" 
	d="
M221.006195,411.269653 
	C221.242767,411.066772 221.509857,411.204376 221.854645,411.627930 
	C221.683060,411.717102 221.384506,411.615845 221.006195,411.269653 
z"/>
<path fill="#F9D821" opacity="1.000000" stroke="none" 
	d="
M333.269043,403.841980 
	C333.152740,403.528564 333.369141,403.309875 333.884857,403.101074 
	C333.916260,403.313232 333.722107,403.588440 333.269043,403.841980 
z"/>
<path fill="#FBDD34" opacity="1.000000" stroke="none" 
	d="
M294.955109,118.744431 
	C294.711304,118.955864 294.452148,118.822449 294.120178,118.406738 
	C294.294922,118.313042 294.592407,118.404762 294.955109,118.744431 
z"/>
<path fill="#FBDD34" opacity="1.000000" stroke="none" 
	d="
M241.750107,118.182922 
	C241.873703,118.496010 241.671478,118.711266 241.183975,118.924553 
	C241.143860,118.709152 241.319046,118.429977 241.750107,118.182922 
z"/>
<path fill="#FFCD01" opacity="1.000000" stroke="none" 
	d="
M161.989563,339.003662 
	C151.709732,325.017090 145.517929,309.230652 142.114838,292.368896 
	C139.410416,278.968933 139.411758,265.423920 140.780106,251.789780 
	C142.872040,230.945862 150.425308,212.102509 162.148361,195.151535 
	C173.357849,178.943146 187.552795,165.556152 205.061096,155.908096 
	C220.208618,147.560944 236.275284,141.769958 253.401611,140.291977 
	C276.123932,138.331100 298.545441,140.476486 319.589630,150.339600 
	C325.420563,153.072464 330.995697,156.351151 336.849213,160.055237 
	C339.591309,165.975479 342.406250,171.121902 344.661041,176.503036 
	C345.907654,179.477997 346.215851,182.846161 346.649292,185.888855 
	C343.473145,183.233002 340.853577,180.317352 337.666748,178.295868 
	C328.875092,172.719101 320.318359,166.348404 310.779297,162.491638 
	C301.100800,158.578506 290.462250,156.648956 280.062164,154.994659 
	C259.770020,151.766937 240.168137,154.960144 221.313995,163.128479 
	C204.352661,170.476776 190.350998,181.528061 178.654739,195.788498 
	C164.815842,212.661255 156.486008,232.025833 154.254593,253.481033 
	C152.266464,272.597046 154.049316,291.683167 162.093521,309.589722 
	C165.081696,316.241425 168.637939,322.637878 171.935104,329.150726 
	C172.436478,328.913452 172.937851,328.676178 173.439209,328.438904 
	C168.076691,316.464508 164.048126,304.133331 163.278885,290.797668 
	C163.079468,289.705292 162.636871,288.810760 162.161072,287.454834 
	C162.753342,278.077454 162.874268,269.091461 164.101440,260.259155 
	C167.413696,236.419662 178.551682,216.264099 195.352661,199.442596 
	C206.311264,188.470612 219.176697,179.766235 233.821411,174.230988 
	C246.230850,169.540619 258.974396,166.608444 272.473480,166.885391 
	C284.784363,167.137955 296.720795,167.942001 308.700684,171.701782 
	C325.223236,176.887238 339.797882,184.708710 352.038422,197.307251 
	C352.831848,203.104324 354.126221,208.464523 354.341705,213.867752 
	C354.717834,223.300751 355.223328,232.848206 354.187805,242.182770 
	C353.235077,250.770981 350.094025,259.094513 348.339661,267.621613 
	C346.399933,277.049622 341.944763,285.292358 336.804016,293.166534 
	C333.611572,298.056519 329.591705,302.406311 325.968140,306.597961 
	C326.129486,305.549377 326.208313,304.882751 326.410980,304.256134 
	C331.393616,288.850800 325.143005,274.185730 310.553040,267.308594 
	C307.944092,266.078827 305.155365,265.230499 301.754181,263.942719 
	C303.274475,263.253601 304.123566,262.875946 304.966675,262.485443 
	C318.188965,256.361572 324.158600,246.192917 323.020813,231.735794 
	C322.072662,219.688263 311.316193,209.442810 296.702881,207.087067 
	C292.594421,206.424744 290.515747,205.129562 290.922577,200.491638 
	C291.364288,195.456207 291.022766,190.352066 291.022766,185.000916 
	C285.908539,185.000916 281.748627,185.142334 277.603333,184.957397 
	C274.112701,184.801682 272.825439,186.241119 272.944336,189.666992 
	C273.115509,194.598434 272.988068,199.540222 272.988068,204.339523 
	C263.191864,206.072388 262.973358,205.909363 262.972626,197.519470 
	C262.971558,184.924957 262.971527,184.925064 250.226700,184.994720 
	C249.560516,184.998367 248.684616,184.726212 248.267899,185.049088 
	C247.075867,185.972687 245.263214,187.051819 245.139893,188.222092 
	C244.740601,192.010849 244.746689,195.887283 245.052917,199.693207 
	C245.378998,203.745911 244.132355,205.266739 239.839569,205.122604 
	C230.689529,204.815414 221.521744,205.068008 212.361740,205.011261 
	C208.759674,204.988937 206.626724,206.135773 206.968811,210.231445 
	C207.189850,212.877930 207.089142,215.560318 206.995819,218.221817 
	C206.867035,221.894028 207.869019,223.826447 212.191772,223.099564 
	C216.008804,222.457733 219.951736,222.658600 222.107986,227.196167 
	C222.351364,227.689926 222.579514,227.892380 222.892151,228.488708 
	C222.927658,242.943314 222.949417,256.931183 222.957092,270.919037 
	C222.963028,281.743042 223.001831,292.567444 222.922195,303.390900 
	C222.891129,307.612610 222.100555,311.428284 216.752487,312.003387 
	C207.982498,312.946564 207.986771,312.987122 207.983795,321.707092 
	C207.983337,323.039276 208.109650,324.385712 207.959915,325.700806 
	C207.592361,328.928955 208.848663,330.155762 212.165802,330.045929 
	C218.320419,329.842194 224.488449,329.895996 230.647369,330.018860 
	C235.244141,330.110596 241.266983,328.843445 243.990585,331.226410 
	C246.302109,333.248810 244.822083,339.627533 244.977524,344.080170 
	C245.039429,345.853271 244.987701,347.630341 244.987701,350.026611 
	C250.088593,350.026611 254.537598,350.026611 258.905731,350.411377 
	C252.800049,352.188843 246.829163,354.441895 240.740982,354.823395 
	C216.102478,356.367371 192.178116,353.435883 169.931564,341.658875 
	C167.497772,340.370422 164.646957,339.869720 161.989563,339.003662 
z"/>
<path fill="#FCBE11" opacity="1.000000" stroke="none" 
	d="
M325.943237,306.998566 
	C329.591705,302.406311 333.611572,298.056519 336.804016,293.166534 
	C341.944763,285.292358 346.399933,277.049622 348.339661,267.621613 
	C350.094025,259.094513 353.235077,250.770981 354.187805,242.182770 
	C355.223328,232.848206 354.717834,223.300751 354.341705,213.867752 
	C354.126221,208.464523 352.831848,203.104324 352.340576,197.462448 
	C354.533447,198.703629 356.408936,200.207108 358.284424,201.710587 
	C358.597870,201.380005 358.911285,201.049423 359.224731,200.718842 
	C355.132172,195.824921 351.039612,190.931000 346.947052,186.037079 
	C346.215851,182.846161 345.907654,179.477997 344.661041,176.503036 
	C342.406250,171.121902 339.591309,165.975479 337.006958,160.360641 
	C342.462860,163.951965 348.272278,167.515152 353.317291,171.948227 
	C370.149597,186.738846 382.519836,204.825928 389.279938,226.138519 
	C392.747101,237.069336 394.701660,248.671936 395.792847,260.118408 
	C397.347687,276.428223 395.177094,292.620544 389.751862,308.157898 
	C384.792969,322.359711 377.737366,335.492859 368.250000,347.263855 
	C352.062073,367.348358 331.678162,381.543488 307.141724,389.163513 
	C297.134644,392.271332 286.494659,393.876617 276.021393,394.820648 
	C260.896515,396.184021 245.880585,394.421753 231.241531,390.040955 
	C214.632111,385.070496 199.752808,376.985931 186.369858,365.953705 
	C177.072769,358.289673 168.871933,349.711914 162.128128,339.315582 
	C164.646957,339.869720 167.497772,340.370422 169.931564,341.658875 
	C192.178116,353.435883 216.102478,356.367371 240.740982,354.823395 
	C246.829163,354.441895 252.800049,352.188843 259.282288,350.395355 
	C260.492706,349.995972 261.245758,349.997375 262.393311,349.996033 
	C266.194092,348.996368 269.600372,347.999390 273.028503,347.416840 
	C273.940247,348.549652 274.764801,349.787231 275.729767,349.908630 
	C290.367981,351.749969 290.778473,351.371460 291.439209,336.976196 
	C297.267151,333.567993 302.728790,330.155640 308.190399,326.743256 
	C307.785339,326.156403 307.380310,325.569580 307.182220,324.712280 
	C315.893127,321.094330 321.185089,314.330383 325.943237,306.998566 
z"/>
<path fill="#F9D821" opacity="1.000000" stroke="none" 
	d="
M226.549698,410.467163 
	C226.583298,410.523071 226.516098,410.411224 226.549698,410.467163 
z"/>
<path fill="#E79D24" opacity="1.000000" stroke="none" 
	d="
M325.968109,306.597961 
	C321.185089,314.330383 315.893127,321.094330 306.807190,324.761902 
	C302.243561,326.068268 298.193268,326.850464 294.318176,328.153687 
	C292.995270,328.598572 291.605682,330.186188 291.159088,331.550385 
	C290.621948,333.191193 291.058105,335.150574 291.072876,336.972046 
	C290.778473,351.371460 290.367981,351.749969 275.729767,349.908630 
	C274.764801,349.787231 273.940247,348.549652 273.028320,346.948425 
	C272.999054,341.927490 272.797455,337.778015 273.037598,333.654297 
	C273.294128,329.249725 270.335022,329.900726 267.775696,330.024445 
	C265.268616,330.145599 261.786102,328.702850 261.966827,333.613464 
	C262.167572,339.068237 262.003845,344.536438 261.998779,349.998779 
	C261.245758,349.997375 260.492706,349.995972 259.363159,350.010590 
	C254.537598,350.026611 250.088593,350.026611 244.987701,350.026611 
	C244.987701,347.630341 245.039429,345.853271 244.977524,344.080170 
	C244.822083,339.627533 246.302109,333.248810 243.990585,331.226410 
	C241.266983,328.843445 235.244141,330.110596 230.647369,330.018860 
	C224.488449,329.895996 218.320419,329.842194 212.165802,330.045929 
	C208.848663,330.155762 207.592361,328.928955 207.959915,325.700806 
	C208.109650,324.385712 207.983337,323.039276 207.983795,321.707092 
	C207.986771,312.987122 207.982498,312.946564 216.752487,312.003387 
	C222.100555,311.428284 222.891129,307.612610 222.922195,303.390900 
	C223.001831,292.567444 222.963028,281.743042 222.957092,270.919037 
	C222.949417,256.931183 222.927658,242.943314 222.828613,228.262024 
	C222.577545,227.285110 222.338486,227.088165 222.028122,226.977722 
	C219.951736,222.658600 216.008804,222.457733 212.191772,223.099564 
	C207.869019,223.826447 206.867035,221.894028 206.995819,218.221817 
	C207.089142,215.560318 207.189850,212.877930 206.968811,210.231445 
	C206.626724,206.135773 208.759674,204.988937 212.361740,205.011261 
	C221.521744,205.068008 230.689529,204.815414 239.839569,205.122604 
	C244.132355,205.266739 245.378998,203.745911 245.052917,199.693207 
	C244.746689,195.887283 244.740601,192.010849 245.139893,188.222092 
	C245.263214,187.051819 247.075867,185.972687 248.267899,185.049088 
	C248.684616,184.726212 249.560516,184.998367 250.226700,184.994720 
	C262.971527,184.925064 262.971558,184.924957 262.972626,197.519470 
	C262.973358,205.909363 263.191864,206.072388 272.988068,204.339523 
	C272.988068,199.540222 273.115509,194.598434 272.944336,189.666992 
	C272.825439,186.241119 274.112701,184.801682 277.603333,184.957397 
	C281.748627,185.142334 285.908539,185.000916 291.022766,185.000916 
	C291.022766,190.352066 291.364288,195.456207 290.922577,200.491638 
	C290.515747,205.129562 292.594421,206.424744 296.702881,207.087067 
	C311.316193,209.442810 322.072662,219.688263 323.020813,231.735794 
	C324.158600,246.192917 318.188965,256.361572 304.966675,262.485443 
	C304.123566,262.875946 303.274475,263.253601 301.754181,263.942719 
	C305.155365,265.230499 307.944092,266.078827 310.553040,267.308594 
	C325.143005,274.185730 331.393616,288.850800 326.410980,304.256134 
	C326.208313,304.882751 326.129486,305.549377 325.968109,306.597961 
M254.568924,274.224854 
	C254.280609,274.414520 254.097794,274.677521 253.999435,275.949310 
	C253.998520,285.089661 253.959915,294.230286 254.017792,303.370270 
	C254.037216,306.434143 254.242798,309.843964 258.367950,309.904388 
	C267.117096,310.032562 275.924164,310.709991 284.400909,307.391479 
	C291.946991,304.437286 296.065399,297.243774 295.001282,288.155273 
	C294.194092,281.261139 287.995300,275.514740 280.345764,275.046417 
	C271.918610,274.530548 263.469543,274.372620 254.568924,274.224854 
M261.564819,256.002289 
	C268.454071,255.323807 275.379059,254.890350 282.221527,253.891403 
	C287.989471,253.049362 292.601379,247.230026 292.978668,241.202148 
	C293.384827,234.712357 290.111298,228.586746 283.839996,227.656525 
	C274.738098,226.306458 265.408417,226.423050 256.169006,226.207443 
	C255.473022,226.191193 254.137131,228.494644 254.095520,229.752762 
	C253.881409,236.226349 253.997299,242.710724 253.989883,249.191330 
	C253.982132,255.967300 253.978134,255.967300 261.564819,256.002289 
z"/>
<path fill="#FFDC52" opacity="1.000000" stroke="none" 
	d="
M346.649292,185.888855 
	C351.039612,190.931000 355.132172,195.824921 359.224731,200.718842 
	C358.911285,201.049423 358.597870,201.380005 358.284424,201.710587 
	C356.408936,200.207108 354.533447,198.703629 352.355774,197.044922 
	C339.797882,184.708710 325.223236,176.887238 308.700684,171.701782 
	C296.720795,167.942001 284.784363,167.137955 272.473480,166.885391 
	C258.974396,166.608444 246.230850,169.540619 233.821411,174.230988 
	C219.176697,179.766235 206.311264,188.470612 195.352661,199.442596 
	C178.551682,216.264099 167.413696,236.419662 164.101440,260.259155 
	C162.874268,269.091461 162.753342,278.077454 162.103561,287.799255 
	C162.398056,289.401917 162.716873,290.198730 163.035706,290.995544 
	C164.048126,304.133331 168.076691,316.464508 173.439209,328.438904 
	C172.937851,328.676178 172.436478,328.913452 171.935104,329.150726 
	C168.637939,322.637878 165.081696,316.241425 162.093521,309.589722 
	C154.049316,291.683167 152.266464,272.597046 154.254593,253.481033 
	C156.486008,232.025833 164.815842,212.661255 178.654739,195.788498 
	C190.350998,181.528061 204.352661,170.476776 221.313995,163.128479 
	C240.168137,154.960144 259.770020,151.766937 280.062164,154.994659 
	C290.462250,156.648956 301.100800,158.578506 310.779297,162.491638 
	C320.318359,166.348404 328.875092,172.719101 337.666748,178.295868 
	C340.853577,180.317352 343.473145,183.233002 346.649292,185.888855 
z"/>
<path fill="#FED220" opacity="1.000000" stroke="none" 
	d="
M163.278885,290.797668 
	C162.716873,290.198730 162.398056,289.401917 162.136749,288.260681 
	C162.636871,288.810760 163.079468,289.705292 163.278885,290.797668 
z"/>
<path fill="#F7BE10" opacity="1.000000" stroke="none" 
	d="
M222.107986,227.196167 
	C222.338486,227.088165 222.577545,227.285110 222.808792,227.795258 
	C222.579514,227.892380 222.351364,227.689926 222.107986,227.196167 
z"/>
<path fill="#FFCE03" opacity="1.000000" stroke="none" 
	d="
M262.393311,349.996033 
	C262.003845,344.536438 262.167572,339.068237 261.966827,333.613464 
	C261.786102,328.702850 265.268616,330.145599 267.775696,330.024445 
	C270.335022,329.900726 273.294128,329.249725 273.037598,333.654297 
	C272.797455,337.778015 272.999054,341.927490 273.006409,346.534027 
	C269.600372,347.999390 266.194092,348.996368 262.393311,349.996033 
z"/>
<path fill="#FECB05" opacity="1.000000" stroke="none" 
	d="
M291.439209,336.976196 
	C291.058105,335.150574 290.621948,333.191193 291.159088,331.550385 
	C291.605682,330.186188 292.995270,328.598572 294.318176,328.153687 
	C298.193268,326.850464 302.243561,326.068268 306.600220,325.032349 
	C307.380310,325.569580 307.785339,326.156403 308.190399,326.743256 
	C302.728790,330.155640 297.267151,333.567993 291.439209,336.976196 
z"/>
<path fill="#FFCD01" opacity="1.000000" stroke="none" 
	d="
M255.030014,274.058746 
	C263.469543,274.372620 271.918610,274.530548 280.345764,275.046417 
	C287.995300,275.514740 294.194092,281.261139 295.001282,288.155273 
	C296.065399,297.243774 291.946991,304.437286 284.400909,307.391479 
	C275.924164,310.709991 267.117096,310.032562 258.367950,309.904388 
	C254.242798,309.843964 254.037216,306.434143 254.017792,303.370270 
	C253.959915,294.230286 253.998520,285.089661 254.223175,275.374512 
	C254.716415,274.611847 254.910782,274.364868 255.030014,274.058746 
z"/>
<path fill="#FFCD01" opacity="1.000000" stroke="none" 
	d="
M261.080139,256.002289 
	C253.978134,255.967300 253.982132,255.967300 253.989883,249.191330 
	C253.997299,242.710724 253.881409,236.226349 254.095520,229.752762 
	C254.137131,228.494644 255.473022,226.191193 256.169006,226.207443 
	C265.408417,226.423050 274.738098,226.306458 283.839996,227.656525 
	C290.111298,228.586746 293.384827,234.712357 292.978668,241.202148 
	C292.601379,247.230026 287.989471,253.049362 282.221527,253.891403 
	C275.379059,254.890350 268.454071,255.323807 261.080139,256.002289 
z"/>
<path fill="#F7BA15" opacity="1.000000" stroke="none" 
	d="
M254.799469,274.141785 
	C254.910782,274.364868 254.716415,274.611847 254.233704,274.906799 
	C254.097794,274.677521 254.280609,274.414520 254.799469,274.141785 
z"/>
</svg>