<?xml version="1.0" encoding="UTF-8"?>
<svg version="1.1" xmlns="http://www.w3.org/2000/svg" width="534" height="534">
<path d="M0 0 C2.4412115 2.16873842 4.83706813 4.37537479 7.21484375 6.61328125 C7.80394531 7.14953125 8.39304687 7.68578125 9 8.23828125 C33.30246586 31.21933644 49.81004295 67.70379507 51.37597656 101.04394531 C51.42212751 104.98394801 51.4615151 108.9230033 51.46484375 112.86328125 C51.46551849 113.57847931 51.46619324 114.29367737 51.46688843 115.0305481 C51.44978805 126.45024231 50.87825479 137.47204414 48.21484375 148.61328125 C48.04855469 149.3187207 47.88226563 150.02416016 47.7109375 150.75097656 C38.20884266 189.51600423 12.86665112 222.60789095 -20.78515625 243.61328125 C-56.05200653 264.87955691 -97.06874037 270.32842367 -136.95458984 261.07202148 C-174.32472104 251.71187235 -208.62759811 227.19463811 -228.6953125 194.171875 C-229.39584708 192.98798789 -230.0924436 191.80176203 -230.78515625 190.61328125 C-231.13562012 190.01402832 -231.48608398 189.41477539 -231.84716797 188.79736328 C-240.02767523 174.61253719 -245.51557349 159.65771995 -248.78515625 143.61328125 C-248.96320801 142.76233887 -249.14125977 141.91139648 -249.32470703 141.03466797 C-250.95431344 132.4380937 -251.18413847 123.95327628 -251.16015625 115.23828125 C-251.15961243 114.49271973 -251.1590686 113.7471582 -251.1585083 112.97900391 C-251.01992484 71.4970935 -234.7402199 36.71480317 -206.78515625 6.61328125 C-206.23472656 6.00871094 -205.68429688 5.40414062 -205.1171875 4.78125 C-151.10956416 -52.16012078 -57.09740522 -48.92919297 0 0 Z " fill="#FED107" transform="translate(367.78515625,153.38671875)"/>
<path d="M0 0 C5.64373922 2.93096251 9.93420115 6.41144647 14.5 10.8125 C15.12519531 11.40353516 15.75039063 11.99457031 16.39453125 12.60351562 C18.27589061 14.38944372 20.13883038 16.19306541 22 18 C22.61101562 18.57967529 23.22203125 19.15935059 23.8515625 19.7565918 C27.82413979 23.59427773 31.02509316 27.54031913 34 32.1875 C34.42514893 32.84403564 34.85029785 33.50057129 35.28833008 34.17700195 C36.14065492 35.50157169 36.98819734 36.82923289 37.83056641 38.16015625 C38.85070116 39.76511147 39.89773812 41.35290394 40.94921875 42.9375 C57.19982945 68.64633131 61.04032502 103.52010296 54.9765625 132.89453125 C47.15133001 167.02258971 27.3054714 196.14906233 -2.1953125 215.046875 C-16.80416913 223.79185182 -32.25616258 229.89993805 -49 233 C-50.02351563 233.19335938 -51.04703125 233.38671875 -52.1015625 233.5859375 C-58.10569792 234.22365128 -64.09144508 234.18442793 -70.125 234.1875 C-71.36765625 234.19974609 -72.6103125 234.21199219 -73.890625 234.22460938 C-103.4516487 234.2708949 -132.46178286 223.24104309 -155 204 C-155 203.34 -155 202.68 -155 202 C-155.85851562 201.62875 -155.85851562 201.62875 -156.734375 201.25 C-159.35010611 199.80683801 -161.14773456 198.11783778 -163.25 196 C-163.95640625 195.29875 -164.6628125 194.5975 -165.390625 193.875 C-167 192 -167 192 -167 190 C-167.99 189.67 -168.98 189.34 -170 189 C-172.04296875 186.49609375 -172.04296875 186.49609375 -174.1875 183.4375 C-174.90292969 182.42558594 -175.61835938 181.41367187 -176.35546875 180.37109375 C-176.89816406 179.58863281 -177.44085938 178.80617188 -178 178 C-177.505 177.01 -177.505 177.01 -177 176 C-176.00742188 176.51949219 -175.01484375 177.03898438 -173.9921875 177.57421875 C-142.55741193 193.80402416 -110.46978015 196.80710895 -76 189 C-75.67 183.39 -75.34 177.78 -75 172 C-76.98 172 -78.96 172 -81 172 C-91.68048535 168.80712337 -99.96755608 163.68880546 -105.80859375 154 C-109.20415449 147.48573479 -112 141.42503455 -112 134 C-109.56318413 133.49645133 -107.12564561 132.99703244 -104.6875 132.5 C-103.99720703 132.35691406 -103.30691406 132.21382812 -102.59570312 132.06640625 C-99.67475227 131.47374956 -96.98891878 131 -94 131 C-93.72027344 131.7734375 -93.44054687 132.546875 -93.15234375 133.34375 C-90.28744778 140.7869524 -87.1265952 148.38069758 -79.67578125 152.1875 C-73.26081565 154.13540196 -65.57386314 154.16152574 -59.4375 151.3125 C-54.46070066 148.33689787 -51.82786263 144.43711681 -50 139 C-49.6110687 135.8524585 -49.6110687 135.8524585 -49.625 132.5625 C-49.59664062 131.47066406 -49.56828125 130.37882813 -49.5390625 129.25390625 C-50.28365257 123.99760519 -52.6122012 121.06183199 -56.77734375 117.875 C-64.34358277 113.38576053 -71.91649252 109.49271027 -80 106 C-80 105.34 -80 104.68 -80 104 C-81.06734375 103.86271484 -81.06734375 103.86271484 -82.15625 103.72265625 C-88.89763268 102.00953016 -95.31752476 96.67691686 -99.0625 90.875 C-102.30337971 85.1759436 -103.36483945 79.63202458 -103.3125 73.125 C-103.30831055 72.41682129 -103.30412109 71.70864258 -103.29980469 70.97900391 C-103.12784671 63.03783804 -100.84141666 57.24698923 -96 51 C-95.34 51 -94.68 51 -94 51 C-94 50.34 -94 49.68 -94 49 C-91.875 47.30859375 -91.875 47.30859375 -89 45.4375 C-88.071875 44.81746094 -87.14375 44.19742188 -86.1875 43.55859375 C-83 42 -83 42 -75 41 C-75 35.39 -75 29.78 -75 24 C-70.05 24 -65.1 24 -60 24 C-60 29.61 -60 35.22 -60 41 C-58.02 41 -56.04 41 -54 41 C-45.32963863 44.31556966 -38.63616466 50.42645162 -33.75 58.16796875 C-33 60 -33 60 -34 63 C-36.09327067 64.41595018 -38.09666074 65.62638843 -40.3125 66.8125 C-42.03919922 67.78123047 -42.03919922 67.78123047 -43.80078125 68.76953125 C-47 70 -47 70 -49.26953125 69.3828125 C-51 68 -51 68 -53.375 65.0625 C-56.72507769 60.96015936 -59.67209195 59.24051091 -65.0625 58.68359375 C-70.16608471 58.50380838 -73.95265485 58.51244277 -78.625 60.6875 C-82.41365127 64.37644993 -83.83521518 66.54047735 -84.4375 71.875 C-84.21423914 76.2740658 -82.9628471 79.71663383 -80 83 C-74.94680926 87.02523973 -68.95114088 89.49954358 -63.11621094 92.16870117 C-49.93284494 98.22162843 -37.52180844 104.78487342 -31.38671875 118.64453125 C-27.76480154 128.71264718 -28.42905499 141.07436552 -32.9375 150.6875 C-39.2399988 161.44477707 -47.1973045 168.06576817 -59 172 C-59.33 175.63 -59.66 179.26 -60 183 C-58.7625 182.175 -57.525 181.35 -56.25 180.5 C-52.98573504 178.32382336 -52.13978192 178 -48 178 C-48 177.34 -48 176.68 -48 176 C-47.48050781 175.74605469 -46.96101562 175.49210938 -46.42578125 175.23046875 C-38.39929843 171.30553318 -38.39929843 171.30553318 -31.59375 165.59375 C-28.60671437 162.60671437 -25.37951008 159.87315279 -22.20703125 157.0859375 C-19.84402132 155.00835941 -19.84402132 155.00835941 -18 152 C-17.34 152 -16.68 152 -16 152 C-15.690625 151.38125 -15.38125 150.7625 -15.0625 150.125 C-14.375 148.75 -13.6875 147.375 -13 146 C-12.01 146 -11.02 146 -10 146 C-9.90589844 145.29488281 -9.81179688 144.58976563 -9.71484375 143.86328125 C-8.86906963 140.47556303 -7.44986007 138.11859766 -5.5625 135.1875 C-4.94503906 134.21167969 -4.32757813 133.23585938 -3.69140625 132.23046875 C-3.13324219 131.49441406 -2.57507813 130.75835937 -2 130 C-1.34 130 -0.68 130 0 130 C0.268125 128.96875 0.53625 127.9375 0.8125 126.875 C1.82236836 123.33692972 3.32628744 120.28305156 5 117 C7.8296565 110.69552532 9.7696821 104.40369495 11.34375 97.6796875 C12 95 12 95 13.125 91.875 C15.56373686 83.86200748 15.15617081 75.10913147 15.125 66.8125 C15.12886719 65.77158203 15.13273438 64.73066406 15.13671875 63.65820312 C15.1299488 58.32686701 14.85231972 53.27498662 14 48 C13.93943849 46.35514934 13.91218045 44.70827043 13.9375 43.0625 C13.94652344 42.29035156 13.95554687 41.51820313 13.96484375 40.72265625 C13.98224609 39.86994141 13.98224609 39.86994141 14 39 C13.34 38.67 12.68 38.34 12 38 C12.33 37.34 12.66 36.68 13 36 C16.21043882 37.38188453 18.04936365 38.92421903 20.25 41.625 C20.77078125 42.25664062 21.2915625 42.88828125 21.828125 43.5390625 C22.40820312 44.26222656 22.40820312 44.26222656 23 45 C19.15822275 38.76276165 14.89591968 33.59063345 9.66015625 28.45703125 C8 26 8 26 8.24609375 22.69921875 C8.49488281 21.80847656 8.74367188 20.91773438 9 20 C8.01 20 7.02 20 6 20 C5.67 16.7 5.34 13.4 5 10 C4.34 10 3.68 10 3 10 C2.49596232 8.70990357 1.99690074 7.41786211 1.5 6.125 C1.2215625 5.40570313 0.943125 4.68640625 0.65625 3.9453125 C0 2 0 2 0 0 Z " fill="#FBBE10" transform="translate(339,161)"/>
<path d="M0 0 C4.95 0 9.9 0 15 0 C15 5.61 15 11.22 15 17 C16.98 17 18.96 17 21 17 C29.67036137 20.31556966 36.36383534 26.42645162 41.25 34.16796875 C42 36 42 36 41 39 C38.90672933 40.41595018 36.90333926 41.62638843 34.6875 42.8125 C33.53636719 43.45832031 32.38523437 44.10414063 31.19921875 44.76953125 C28 46 28 46 25.73046875 45.3828125 C24 44 24 44 21.625 41.0625 C18.27492231 36.96015936 15.32790805 35.24051091 9.9375 34.68359375 C4.83391529 34.50380838 1.04734515 34.51244277 -3.625 36.6875 C-7.41365127 40.37644993 -8.83521518 42.54047735 -9.4375 47.875 C-9.21423914 52.2740658 -7.9628471 55.71663383 -5 59 C0.05319074 63.02523973 6.04885912 65.49954358 11.88378906 68.16870117 C25.06715506 74.22162843 37.47819156 80.78487342 43.61328125 94.64453125 C47.23519846 104.71264718 46.57094501 117.07436552 42.0625 126.6875 C36.46767389 136.23690199 29.46821835 143.11774684 19 147 C17.35 147.33 15.7 147.66 14 148 C14 153.61 14 159.22 14 165 C9.38 165 4.76 165 0 165 C0 159.39 0 153.78 0 148 C-1.98 148 -3.96 148 -6 148 C-16.68048535 144.80712337 -24.96755608 139.68880546 -30.80859375 130 C-34.20415449 123.48573479 -37 117.42503455 -37 110 C-34.56318413 109.49645133 -32.12564561 108.99703244 -29.6875 108.5 C-28.99720703 108.35691406 -28.30691406 108.21382813 -27.59570312 108.06640625 C-24.67475227 107.47374956 -21.98891878 107 -19 107 C-18.72027344 107.7734375 -18.44054687 108.546875 -18.15234375 109.34375 C-15.28744778 116.7869524 -12.1265952 124.38069758 -4.67578125 128.1875 C1.73918435 130.13540196 9.42613686 130.16152574 15.5625 127.3125 C20.53929934 124.33689787 23.17213737 120.43711681 25 115 C25.3889313 111.8524585 25.3889313 111.8524585 25.375 108.5625 C25.41753906 106.92474609 25.41753906 106.92474609 25.4609375 105.25390625 C24.71634743 99.99760519 22.3877988 97.06183199 18.22265625 93.875 C10.65641723 89.38576053 3.08350748 85.49271027 -5 82 C-5 81.34 -5 80.68 -5 80 C-6.06734375 79.86271484 -6.06734375 79.86271484 -7.15625 79.72265625 C-13.89763268 78.00953016 -20.31752476 72.67691686 -24.0625 66.875 C-27.30337971 61.1759436 -28.36483945 55.63202458 -28.3125 49.125 C-28.30831055 48.41682129 -28.30412109 47.70864258 -28.29980469 46.97900391 C-28.12784671 39.03783804 -25.84141666 33.24698923 -21 27 C-20.34 27 -19.68 27 -19 27 C-19 26.34 -19 25.68 -19 25 C-16.875 23.30859375 -16.875 23.30859375 -14 21.4375 C-13.071875 20.81746094 -12.14375 20.19742188 -11.1875 19.55859375 C-8 18 -8 18 0 17 C0 11.39 0 5.78 0 0 Z " fill="#E79C23" transform="translate(264,185)"/>
<path d="M0 0 C13.90583374 9.37602922 25.07622173 20.5662037 35 34 C34.67 34.66 34.34 35.32 34 36 C33.46632813 35.3709375 32.93265625 34.741875 32.3828125 34.09375 C16.72550985 16.10681408 -6.08459986 2.00134251 -29.8828125 -1.60546875 C-32 -2 -32 -2 -33 -3 C-45.33476385 -4.80671948 -61.970614 -6.140656 -73.875 -2 C-78.79614272 -0.42523433 -83.8636512 -0.31582727 -89 0 C-89 0.66 -89 1.32 -89 2 C-89.81082031 2.29132813 -90.62164062 2.58265625 -91.45703125 2.8828125 C-115.46087364 11.76898465 -133.91071152 26.7662505 -148 48 C-148.64066406 48.95648438 -149.28132813 49.91296875 -149.94140625 50.8984375 C-164.86752183 74.74015231 -168.99735162 104.92127001 -162.9921875 132.23046875 C-160.18948456 144.12278138 -160.18948456 144.12278138 -155 155 C-155.33 155.99 -155.66 156.98 -156 158 C-158.3493638 155.11668989 -159.63828003 152.43986723 -161 149 C-161.7771588 147.4509692 -162.56931771 145.90938857 -163.375 144.375 C-166.05220199 139.03629809 -168.17116878 133.68322053 -170 128 C-170.37511719 126.93265625 -170.75023437 125.8653125 -171.13671875 124.765625 C-177.92157306 102.57796107 -175.49252455 76.42039245 -167 55 C-166.67257813 54.12472656 -166.34515625 53.24945313 -166.0078125 52.34765625 C-163.78675756 46.59846537 -161.11610275 41.31201408 -158 36 C-157.443125 34.989375 -156.88625 33.97875 -156.3125 32.9375 C-155.879375 32.298125 -155.44625 31.65875 -155 31 C-154.34 31 -153.68 31 -153 31 C-152.78085938 30.30261719 -152.56171875 29.60523438 -152.3359375 28.88671875 C-150.67011235 25.2871726 -148.31846534 22.66362745 -145.625 19.8125 C-145.09189209 19.24442627 -144.55878418 18.67635254 -144.00952148 18.09106445 C-126.34299057 -0.40078698 -105.65830152 -10.55937831 -81 -16 C-80.087948 -16.2626062 -80.087948 -16.2626062 -79.1574707 -16.53051758 C-52.92046074 -22.23989521 -22.34315314 -13.76811339 0 0 Z " fill="#FEDB52" transform="translate(328,171)"/>
<path d="M0 0 C0.99 0.33 1.98 0.66 3 1 C-4.72042505 17.54904507 -22.93700661 33.40257192 -38 43 C-38.66 43 -39.32 43 -40 43 C-40 42.34 -40 41.68 -40 41 C-40.66 41 -41.32 41 -42 41 C-41.67 39.68 -41.34 38.36 -41 37 C-39.824375 36.8453125 -39.824375 36.8453125 -38.625 36.6875 C-35.66954819 36.22404978 -35.66954819 36.22404978 -34 33 C-33.34 33.66 -32.68 34.32 -32 35 C-31.01 34.34 -30.02 33.68 -29 33 C-29 32.01 -29 31.02 -29 30 C-29.66 29.67 -30.32 29.34 -31 29 C-29.35 29.33 -27.7 29.66 -26 30 C-25.67 29.01 -25.34 28.02 -25 27 C-24.01 26.67 -23.02 26.34 -22 26 C-22.99 25.34 -23.98 24.68 -25 24 C-24.67 22.68 -24.34 21.36 -24 20 C-23.67 20.99 -23.34 21.98 -23 23 C-22.34 23 -21.68 23 -21 23 C-21.33 22.01 -21.66 21.02 -22 20 C-21.01 20 -20.02 20 -19 20 C-19 20.66 -19 21.32 -19 22 C-18.01 21.01 -17.02 20.02 -16 19 C-16.99 18.67 -17.98 18.34 -19 18 C-18.34 17.67 -17.68 17.34 -17 17 C-16.34 17.33 -15.68 17.66 -15 18 C-15 17.01 -15 16.02 -15 15 C-15.99 15 -16.98 15 -18 15 C-18 14.34 -18 13.68 -18 13 C-14.7 12.67 -11.4 12.34 -8 12 C-8.495 10.02 -8.495 10.02 -9 8 C-8.01 8.33 -7.02 8.66 -6 9 C-6 8.34 -6 7.68 -6 7 C-4.68 7 -3.36 7 -2 7 C-1.855625 6.030625 -1.71125 5.06125 -1.5625 4.0625 C-1 1 -1 1 0 0 Z M-13 13 C-13.33 13.66 -13.66 14.32 -14 15 C-13.34 15 -12.68 15 -12 15 C-12.33 14.34 -12.66 13.68 -13 13 Z " fill="#FCD921" transform="translate(390,351)"/>
<path d="M0 0 C4.69042435 7.03563653 2.86719107 15.78448141 1.67480469 23.72924805 C1.41535174 25.48140053 1.20326995 27.24044452 1 29 C1.33 29.33 1.66 29.66 2 30 C2.203125 32.21484375 2.203125 32.21484375 2.25 34.9375 C2.27578125 35.83339844 2.3015625 36.72929687 2.328125 37.65234375 C2.16570312 38.81443359 2.16570312 38.81443359 2 40 C1.01 40.66 0.02 41.32 -1 42 C0.32 42 1.64 42 3 42 C2.67 49.26 2.34 56.52 2 64 C1.67 64 1.34 64 1 64 C-1.95166539 52.6501438 -2.30997975 41.40457004 -2.3125 29.75 C-2.31572266 29.02242493 -2.31894531 28.29484985 -2.32226562 27.54522705 C-2.34745711 18.20836943 -1.7405462 9.20188019 0 0 Z " fill="#FED610" transform="translate(119,238)"/>
<path d="M0 0 C5.26734529 0.59591553 9.95212325 1.77963459 14.9375 3.5625 C16.02599243 3.94752686 16.02599243 3.94752686 17.13647461 4.34033203 C25.07903383 7.24646001 32.53822785 11.04315178 40 15 C40 15.33 40 15.66 40 16 C34.25 16.125 34.25 16.125 32 15 C29.88316159 15.89163577 29.88316159 15.89163577 28 17 C28 16.01 28 15.02 28 14 C27.01 15.485 27.01 15.485 26 17 C25.01 16.67 24.02 16.34 23 16 C22.67 16 22.34 16 22 16 C21.01 16 20.02 16 19 16 C19.875 9.25 19.875 9.25 21 7 C20.01 7.495 20.01 7.495 19 8 C15.13938967 9.28687011 12.05849717 9.13757618 8 9 C8 8.34 8 7.68 8 7 C6.35 6.67 4.7 6.34 3 6 C3.66 5.67 4.32 5.34 5 5 C4.67 4.34 4.34 3.68 4 3 C1.97536745 2.34786708 1.97536745 2.34786708 0 2 C0 1.34 0 0.68 0 0 Z " fill="#FDD612" transform="translate(304,121)"/>
<path d="M0 0 C0.66 0.33 1.32 0.66 2 1 C2.84985257 4.14445451 3 6.70772079 3 10 C-2.28 10 -7.56 10 -13 10 C-13.66 11.65 -14.32 13.3 -15 15 C-14.67 15.66 -14.34 16.32 -14 17 C-15.65 17 -17.3 17 -19 17 C-19.928125 18.670625 -19.928125 18.670625 -20.875 20.375 C-22.13281231 22.63906215 -23.14615142 24.14615142 -25 26 C-28.625 26.125 -28.625 26.125 -32 26 C-24.91291653 16.94428224 -15.94133829 10.06531645 -6.375 3.8125 C-5.77107422 3.41369629 -5.16714844 3.01489258 -4.54492188 2.60400391 C-3.07067976 1.66849198 -1.53901522 0.82462386 0 0 Z " fill="#FBDD3A" transform="translate(192,136)"/>
<path d="M0 0 C0.13187484 6.29231382 -0.27785552 12.17284937 -1.3125 18.375 C-1.44567627 19.19846924 -1.57885254 20.02193848 -1.71606445 20.87036133 C-2.74937895 27.03211193 -4.11113443 33.03868668 -6 39 C-7 37 -8 35 -9 33 C-8.34 33 -7.68 33 -7 33 C-6.09853861 29.47783243 -6.09853861 29.47783243 -6.5625 25.9375 C-7 24 -7 24 -6.02587891 22.16308594 C-4.83714925 19.65662598 -4.83780985 18.20041424 -5.0234375 15.453125 C-5.075 14.60878906 -5.1265625 13.76445312 -5.1796875 12.89453125 C-5.24414062 12.02183594 -5.30859375 11.14914062 -5.375 10.25 C-5.43171875 9.36183594 -5.4884375 8.47367187 -5.546875 7.55859375 C-5.68797546 5.37153668 -5.8393433 3.1856931 -6 1 C-1.125 0 -1.125 0 0 0 Z " fill="#FDD922" transform="translate(419,274)"/>
<path d="M0 0 C0.33 0 0.66 0 1 0 C1.19401633 1.81181405 1.38004375 3.62448532 1.5625 5.4375 C1.66691406 6.44683594 1.77132812 7.45617187 1.87890625 8.49609375 C1.93884766 9.73552734 1.93884766 9.73552734 2 11 C1.67 11.33 1.34 11.66 1 12 C1.18199796 14.24312483 1.51986035 16.44903989 1.84375 18.67578125 C2.00272794 21.04057814 1.70000646 22.75071455 1 25 C0.34 25 -0.32 25 -1 25 C-1 24.34 -1 23.68 -1 23 C-1.66 23 -2.32 23 -3 23 C-3 23.66 -3 24.32 -3 25 C-4.32 24.67 -5.64 24.34 -7 24 C-6.4047056 18.78440928 -5.22375782 14.13714747 -3.5 9.1875 C-3.27441406 8.52041016 -3.04882812 7.85332031 -2.81640625 7.16601562 C-1.97989631 4.71340808 -1.16030928 2.32061857 0 0 Z " fill="#FCD925" transform="translate(128,209)"/>
<path d="M0 0 C0.66 0.33 1.32 0.66 2 1 C1.34 1.66 0.68 2.32 0 3 C-1.08244779 7.09845888 -1.08244779 7.09845888 0 11 C-2.45933991 10.88630789 -4.9167909 10.75957349 -7.375 10.625 C-8.07367188 10.5940625 -8.77234375 10.563125 -9.4921875 10.53125 C-14.7734375 10.2265625 -14.7734375 10.2265625 -17 8 C-14.21443118 6.63301613 -11.42068672 5.28365462 -8.625 3.9375 C-7.8309375 3.54755859 -7.036875 3.15761719 -6.21875 2.75585938 C-5.45820313 2.39169922 -4.69765625 2.02753906 -3.9140625 1.65234375 C-2.8614624 1.14175415 -2.8614624 1.14175415 -1.78759766 0.62084961 C-1.19769043 0.41596924 -0.6077832 0.21108887 0 0 Z " fill="#FED713" transform="translate(211,127)"/>
<path d="M0 0 C1.2065625 0.309375 1.2065625 0.309375 2.4375 0.625 C3.0975 0.625 3.7575 0.625 4.4375 0.625 C6.31327353 0.7827227 8.18819917 0.95064643 10.0625 1.125 C11.06539062 1.2178125 12.06828125 1.310625 13.1015625 1.40625 C13.87242187 1.4784375 14.64328125 1.550625 15.4375 1.625 C15.7675 2.615 16.0975 3.605 16.4375 4.625 C16.1075 5.285 15.7775 5.945 15.4375 6.625 C16.0975 6.955 16.7575 7.285 17.4375 7.625 C12.14725594 9.59672029 8.01897825 7.23856744 3.125 5.1875 C2.28904297 4.84912109 1.45308594 4.51074219 0.59179688 4.16210938 C-1.4646154 3.32779354 -3.51541783 2.48189595 -5.5625 1.625 C-2.5625 -0.375 -2.5625 -0.375 0 0 Z " fill="#FDD816" transform="translate(209.5625,403.375)"/>
<path d="M0 0 C0.33 0 0.66 0 1 0 C1 9.57 1 19.14 1 29 C2.32 29 3.64 29 5 29 C4.67 36.26 4.34 43.52 4 51 C3.67 51 3.34 51 3 51 C-1.33825304 34.31838415 -0.28525109 17.0843461 0 0 Z " fill="#FCDC33" transform="translate(117,251)"/>
<path d="M0 0 C5.87734184 0.09982746 11.115269 3.73601048 16.125 6.5 C16.125 6.83 16.125 7.16 16.125 7.5 C10.375 7.625 10.375 7.625 8.125 6.5 C6.00816159 7.39163577 6.00816159 7.39163577 4.125 8.5 C4.125 7.51 4.125 6.52 4.125 5.5 C3.135 6.985 3.135 6.985 2.125 8.5 C1.135 8.17 0.145 7.84 -0.875 7.5 C-1.205 7.5 -1.535 7.5 -1.875 7.5 C-2.865 7.5 -3.855 7.5 -4.875 7.5 C-5 5.125 -5 5.125 -4.875 2.5 C-2.875 0.5 -2.875 0.5 0 0 Z " fill="#FDD819" transform="translate(327.875,129.5)"/>
<path d="M0 0 C1.32 0 2.64 0 4 0 C7.11889176 3.75252666 7.38326548 6.9135521 7.3125 11.6875 C7.30863281 12.82574219 7.30476562 13.96398437 7.30078125 15.13671875 C7 18 7 18 5 20 C4.18025737 17.96123051 3.3695193 15.91883925 2.5625 13.875 C2.11003906 12.73804688 1.65757813 11.60109375 1.19140625 10.4296875 C0.0851556 7.24513646 -0.64725816 4.34856339 -1 1 C-0.67 0.67 -0.34 0.34 0 0 Z " fill="#FCD923" transform="translate(123,306)"/>
<path d="M0 0 C5.28834298 7.93251447 4.58080731 18.94860333 3 28 C2.34 28.33 1.68 28.66 1 29 C-0.40609632 24.05424649 -0.40155277 19.04721236 -0.625 13.9375 C-0.6765625 12.93138672 -0.728125 11.92527344 -0.78125 10.88867188 C-0.82507813 9.92380859 -0.86890625 8.95894531 -0.9140625 7.96484375 C-0.9548291 7.0843335 -0.9955957 6.20382324 -1.03759766 5.29663086 C-1 3 -1 3 0 0 Z " fill="#FDD81B" transform="translate(414,230)"/>
<path d="M0 0 C0.99 0.33 1.98 0.66 3 1 C1.3523657 7.09624689 -1.65811611 12.66933194 -5 18 C-5.66 18.33 -6.32 18.66 -7 19 C-7.05423638 17.08364783 -7.09289963 15.16685075 -7.125 13.25 C-7.14820313 12.18265625 -7.17140625 11.1153125 -7.1953125 10.015625 C-7.00487687 7.07529894 -6.52670104 5.47638122 -5 3 C-3.35 3 -1.7 3 0 3 C0 2.01 0 1.02 0 0 Z " fill="#FED710" transform="translate(403,328)"/>
<path d="M0 0 C4 4.75 4 4.75 4 7 C4.66 7 5.32 7 6 7 C6 8.32 6 9.64 6 11 C7.98 11 9.96 11 12 11 C12 12.32 12 13.64 12 15 C13.32 15.66 14.64 16.32 16 17 C16 17.99 16 18.98 16 20 C16.66 20.33 17.32 20.66 18 21 C13.05395873 21 10.41135816 17.33515944 7 14 C3.93029859 10.72596862 0.94414915 7.38713455 -2 4 C-1.34 3.67 -0.68 3.34 0 3 C0 2.01 0 1.02 0 0 Z " fill="#FBDB2B" transform="translate(153,360)"/>
<path d="M0 0 C0.33 0.99 0.66 1.98 1 3 C2.175625 2.690625 2.175625 2.690625 3.375 2.375 C4.674375 2.189375 4.674375 2.189375 6 2 C8 4 8 4 8.1953125 6.3828125 C8.17210937 7.28773438 8.14890625 8.19265625 8.125 9.125 C8.10695312 10.03507812 8.08890625 10.94515625 8.0703125 11.8828125 C8.04710937 12.58148438 8.02390625 13.28015625 8 14 C7.01 14.33 6.02 14.66 5 15 C3.82786955 13.21190303 2.66244474 11.41940875 1.5 9.625 C0.8503125 8.62726563 0.200625 7.62953125 -0.46875 6.6015625 C-2 4 -2 4 -2 2 C-1.34 2 -0.68 2 0 2 C0 1.34 0 0.68 0 0 Z " fill="#FDD818" transform="translate(137,337)"/>
<path d="M0 0 C7.33870514 5.54479944 12.48943773 12.72565922 18 20 C17.34 20.66 16.68 21.32 16 22 C15.236875 21.175 14.47375 20.35 13.6875 19.5 C11.24565858 16.65944803 11.24565858 16.65944803 8 17 C7.814375 15.576875 7.814375 15.576875 7.625 14.125 C7.28312823 10.91332809 7.28312823 10.91332809 5 9 C5 8.67 5 8.34 5 8 C3.02 8.33 1.04 8.66 -1 9 C-0.7525 7.329375 -0.7525 7.329375 -0.5 5.625 C0.0455458 2.27967967 0.0455458 2.27967967 0 0 Z " fill="#FCDA2D" transform="translate(374,160)"/>
<path d="M0 0 C0.66 0.33 1.32 0.66 2 1 C2 1.66 2 2.32 2 3 C1.34 3 0.68 3 0 3 C0 3.66 0 4.32 0 5 C1.32 5 2.64 5 4 5 C4.66 5.66 5.32 6.32 6 7 C9.62690383 8.20896794 10.37309617 8.20896794 14 7 C14.66 7.33 15.32 7.66 16 8 C15.67 9.65 15.34 11.3 15 13 C12.72218249 13.78708775 11.48046662 14.18023153 9.18481445 13.3190918 C8.5837085 12.94953369 7.98260254 12.57997559 7.36328125 12.19921875 C6.70392578 11.79896484 6.04457031 11.39871094 5.36523438 10.98632812 C4.68783203 10.55771484 4.01042969 10.12910156 3.3125 9.6875 C2.27899414 9.06198242 2.27899414 9.06198242 1.22460938 8.42382812 C-3.85344483 5.29311034 -3.85344483 5.29311034 -5 3 C-3.35 2.67 -1.7 2.34 0 2 C0 1.34 0 0.68 0 0 Z " fill="#FCD922" transform="translate(187,388)"/>
<path d="M0 0 C0.66 0.33 1.32 0.66 2 1 C2.84985257 4.14445451 3 6.70772079 3 10 C1.56260487 10.02712066 0.12506137 10.04645067 -1.3125 10.0625 C-2.51326172 10.07990234 -2.51326172 10.07990234 -3.73828125 10.09765625 C-6 10 -6 10 -9 9 C-8.63030147 6.34385824 -8.29524408 5.25241746 -6.22265625 3.48046875 C-5.50980469 3.05378906 -4.79695312 2.62710938 -4.0625 2.1875 C-3.35222656 1.74792969 -2.64195312 1.30835938 -1.91015625 0.85546875 C-1.27980469 0.57316406 -0.64945313 0.29085937 0 0 Z " fill="#FED614" transform="translate(192,136)"/>
<path d="M0 0 C3.25048942 3.84348411 5.78782869 7.82398529 8.25 12.1875 C8.61351562 12.81591797 8.97703125 13.44433594 9.3515625 14.09179688 C12 18.74647556 12 18.74647556 12 21 C10.68 21 9.36 21 8 21 C5 14.375 5 14.375 5 11 C2.525 10.01 2.525 10.01 0 9 C-1.125 2.25 -1.125 2.25 0 0 Z " fill="#FBDB2C" transform="translate(392,181)"/>
<path d="M0 0 C3.465 1.485 3.465 1.485 7 3 C3.89621148 5.63822024 1.18537076 6.70365731 -2.75 7.6875 C-4.22726562 8.06455078 -4.22726562 8.06455078 -5.734375 8.44921875 C-6.48203125 8.63097656 -7.2296875 8.81273437 -8 9 C-8.33 7.02 -8.66 5.04 -9 3 C-6.94017141 2.48504285 -4.88244533 1.97313036 -2.8125 1.5 C-0.99436859 1.15890376 -0.99436859 1.15890376 0 0 Z " fill="#FDD81B" transform="translate(320,403)"/>
<path d="M0 0 C0.33 0.99 0.66 1.98 1 3 C-0.4375 5.6875 -0.4375 5.6875 -2 8 C-1.34 8 -0.68 8 0 8 C0.33 10.31 0.66 12.62 1 15 C-0.3921875 14.9690625 -0.3921875 14.9690625 -1.8125 14.9375 C-5.02286011 14.84230396 -5.02286011 14.84230396 -8 16 C-8.33 15.34 -8.66 14.68 -9 14 C-7.63671875 11.25 -7.63671875 11.25 -5.6875 8 C-4.73423828 6.39125 -4.73423828 6.39125 -3.76171875 4.75 C-2 2 -2 2 0 0 Z " fill="#FCDA26" transform="translate(145,179)"/>
<path d="M0 0 C0.99 0.33 1.98 0.66 3 1 C0.31666796 4.1049985 -2.9238177 5.80081956 -6.5 7.75 C-7.6446875 8.38421875 -8.789375 9.0184375 -9.96875 9.671875 C-13 11 -13 11 -16 10 C-15.34 9.34 -14.68 8.68 -14 8 C-14 6.68 -14 5.36 -14 4 C-13.01 3.34 -12.02 2.68 -11 2 C-10.01 2.33 -9.02 2.66 -8 3 C-8 3.66 -8 4.32 -8 5 C-7.34 5.33 -6.68 5.66 -6 6 C-5.67 5.01 -5.34 4.02 -5 3 C-2.4375 1.8125 -2.4375 1.8125 0 1 C0 0.67 0 0.34 0 0 Z " fill="#FCD820" transform="translate(347,393)"/>
<path d="M0 0 C-0.99 0 -1.98 0 -3 0 C-2.67 0.99 -2.34 1.98 -2 3 C-1.67 2.34 -1.34 1.68 -1 1 C0.32 1 1.64 1 3 1 C3 1.66 3 2.32 3 3 C2.34 3 1.68 3 1 3 C1 3.66 1 4.32 1 5 C1.66 5 2.32 5 3 5 C3 5.66 3 6.32 3 7 C0.36 7.33 -2.28 7.66 -5 8 C-5 7.01 -5 6.02 -5 5 C-5.66 4.67 -6.32 4.34 -7 4 C-7 4.99 -7 5.98 -7 7 C-7.99 6.67 -8.98 6.34 -10 6 C-9.67 5.01 -9.34 4.02 -9 3 C-9.33 2.34 -9.66 1.68 -10 1 C-3.71428571 -1.42857143 -3.71428571 -1.42857143 0 0 Z " fill="#FDDA29" transform="translate(232,122)"/>
<path d="M0 0 C2.3125 2.6875 2.3125 2.6875 4 5 C1.01758453 5.77321882 -1.97580475 6.41196203 -5 7 C-7 4 -7 4 -6.625 1.8125 C-6.41875 1.214375 -6.2125 0.61625 -6 0 C-6.99 -0.66 -7.98 -1.32 -9 -2 C-5.06273105 -3.60407253 -3.29324977 -2.46993732 0 0 Z " fill="#FDD712" transform="translate(370,155)"/>
<path d="M0 0 C0.66 1.32 1.32 2.64 2 4 C-5.95988402 5.46166012 -12.30600061 4.33992765 -20 2 C-13.43576161 0.23669443 -6.77050266 -0.14405325 0 0 Z " fill="#FCDA26" transform="translate(246,411)"/>
<path d="M0 0 C0.33 0.99 0.66 1.98 1 3 C0.34 3 -0.32 3 -1 3 C-1.33 3.66 -1.66 4.32 -2 5 C-4.22437325 5 -6.35155688 4.74912035 -8.5625 4.5 C-13.40530245 3.99950659 -18.13399442 3.92151604 -23 4 C-23 3.67 -23 3.34 -23 3 C-20.48056604 2.49187886 -17.95983127 1.99335466 -15.4375 1.5 C-14.73302734 1.35691406 -14.02855469 1.21382813 -13.30273438 1.06640625 C-8.78109762 0.19125075 -4.60512972 -0.14523405 0 0 Z " fill="#FCDE41" transform="translate(255,117)"/>
<path d="M0 0 C0.66 0.33 1.32 0.66 2 1 C1.39363767 6.76044212 -0.75658279 11.72014369 -3 17 C-3.33 17 -3.66 17 -4 17 C-4.66 12.71 -5.32 8.42 -6 4 C-4.02 3.67 -2.04 3.34 0 3 C0 2.01 0 1.02 0 0 Z " fill="#FDDA1B" transform="translate(410,312)"/>
<path d="M0 0 C7.09821429 1.74107143 7.09821429 1.74107143 10 5 C0.65741704 6.12998844 -8.60853097 6.09908936 -18 6 C-18 5.67 -18 5.34 -18 5 C-16.30230469 4.96132813 -16.30230469 4.96132813 -14.5703125 4.921875 C-13.08850257 4.86560374 -11.60673323 4.80825618 -10.125 4.75 C-9.37863281 4.73582031 -8.63226563 4.72164063 -7.86328125 4.70703125 C-5.42861619 4.64013659 -5.42861619 4.64013659 -2 4 C-0.39662601 2.09371218 -0.39662601 2.09371218 0 0 Z " fill="#FDE356" transform="translate(277,413)"/>
<path d="M0 0 C1.96713413 2.95070119 2.65358161 4.53581611 3 8 C2.01 9.485 2.01 9.485 1 11 C1 10.34 1 9.68 1 9 C0.01 9 -0.98 9 -2 9 C-2.33 11.64 -2.66 14.28 -3 17 C-3.33 16.34 -3.66 15.68 -4 15 C-4.66 15 -5.32 15 -6 15 C-5.39644592 11.14974121 -4.23227397 8.13898841 -2.4375 4.6875 C-1.98246094 3.80449219 -1.52742187 2.92148438 -1.05859375 2.01171875 C-0.53458984 1.01591797 -0.53458984 1.01591797 0 0 Z " fill="#FBDB29" transform="translate(135,194)"/>
<path d="M0 0 C6.67491831 -0.45510807 12.59374557 1.2327574 19 3 C19 3.33 19 3.66 19 4 C18.07380859 4.07347656 18.07380859 4.07347656 17.12890625 4.1484375 C11.26521841 4.66608422 5.72127225 5.61582123 0 7 C1.65 5.35 3.3 3.7 5 2 C3.35 2 1.7 2 0 2 C0 1.34 0 0.68 0 0 Z " fill="#FEDA48" transform="translate(248,163)"/>
<path d="M0 0 C12.51879169 -0.23302818 24.60320889 0.20150181 37 2 C37 2.33 37 2.66 37 3 C30.375 4 30.375 4 27 4 C27 3.34 27 2.68 27 2 C26.07316406 2.08378906 25.14632813 2.16757813 24.19140625 2.25390625 C22.99386719 2.35574219 21.79632813 2.45757812 20.5625 2.5625 C18.77005859 2.71912109 18.77005859 2.71912109 16.94140625 2.87890625 C15.97074219 2.91886719 15.00007813 2.95882812 14 3 C13.67 2.67 13.34 2.34 13 2 C10.81707226 1.76518307 8.62796826 1.58636677 6.4375 1.4375 C5.23996094 1.35371094 4.04242188 1.26992187 2.80859375 1.18359375 C1.88175781 1.12300781 0.95492188 1.06242187 0 1 C0 0.67 0 0.34 0 0 Z " fill="#FCE876" transform="translate(258,116)"/>
<path d="M0 0 C1.7866789 2.68001835 2.9322137 5.03128744 4.125 8 C4.47820312 8.86625 4.83140625 9.7325 5.1953125 10.625 C6 13 6 13 6 16 C5.34 16 4.68 16 4 16 C4 14.68 4 13.36 4 12 C3.01 12 2.02 12 1 12 C1.33 13.98 1.66 15.96 2 18 C1.34 18 0.68 18 0 18 C-0.33 14.04 -0.66 10.08 -1 6 C-0.34 6 0.32 6 1 6 C0.67 4.02 0.34 2.04 0 0 Z " fill="#FBDB2C" transform="translate(406,206)"/>
<path d="M0 0 C2.58396679 -0.08112454 5.16537568 -0.14054748 7.75 -0.1875 C8.47960937 -0.21263672 9.20921875 -0.23777344 9.9609375 -0.26367188 C13.34486604 -0.30981636 15.57858557 -0.25324128 18.515625 1.51171875 C19.00546875 2.00285156 19.4953125 2.49398437 20 3 C19.18015625 2.97679688 18.3603125 2.95359375 17.515625 2.9296875 C16.43796875 2.91164063 15.3603125 2.89359375 14.25 2.875 C13.18265625 2.85179688 12.1153125 2.82859375 11.015625 2.8046875 C8.03331432 2.99784234 6.55935193 3.58321589 4 5 C1.75 4.625 1.75 4.625 0 4 C0.66 3.34 1.32 2.68 2 2 C1.34 1.34 0.68 0.68 0 0 Z " fill="#FDD714" transform="translate(255,117)"/>
<path d="M0 0 C3.66172475 0.62678171 6.8818995 1.64451846 10.3125 3.0625 C11.19550781 3.42472656 12.07851563 3.78695312 12.98828125 4.16015625 C13.98408203 4.57587891 13.98408203 4.57587891 15 5 C15 5.33 15 5.66 15 6 C13.35 6 11.7 6 10 6 C10 5.34 10 4.68 10 4 C9.01 4.495 9.01 4.495 8 5 C4.13938967 6.28687011 1.05849717 6.13757618 -3 6 C-3 5.67 -3 5.34 -3 5 C-1.35 4.67 0.3 4.34 2 4 C1.34 2.68 0.68 1.36 0 0 Z " fill="#FCDE43" transform="translate(315,124)"/>
<path d="M0 0 C0.33 0.99 0.66 1.98 1 3 C1.66 3 2.32 3 3 3 C4.9451 5.91765 5.45276317 7.62537285 6 11 C5.01 11.33 4.02 11.66 3 12 C2.16121545 10.71186658 1.32913217 9.41936744 0.5 8.125 C0.0359375 7.40570313 -0.428125 6.68640625 -0.90625 5.9453125 C-2 4 -2 4 -2 2 C-1.34 2 -0.68 2 0 2 C0 1.34 0 0.68 0 0 Z " fill="#FCDB2A" transform="translate(137,337)"/>
<path d="M0 0 C0.66 0.33 1.32 0.66 2 1 C1.34 1.66 0.68 2.32 0 3 C-0.64767793 5.57061311 -0.64767793 5.57061311 -1 8 C-1.33 7.01 -1.66 6.02 -2 5 C-2.99 5.495 -2.99 5.495 -4 6 C-6.3329866 6.04022391 -8.66706666 6.04320247 -11 6 C-7.57874946 3.12614955 -4.16111563 1.54115394 0 0 Z " fill="#FBDC31" transform="translate(211,127)"/>
<path d="M0 0 C0.99 0.33 1.98 0.66 3 1 C3 1.99 3 2.98 3 4 C6.04913228 5.01111093 6.04913228 5.01111093 9 4 C8.40138258 6.35171131 7.73075648 8.6859378 7 11 C6.01 11.495 6.01 11.495 5 12 C4.16180842 10.37750059 3.3295884 8.75191503 2.5 7.125 C2.0359375 6.22007812 1.571875 5.31515625 1.09375 4.3828125 C0 2 0 2 0 0 Z " fill="#FBDC31" transform="translate(129,327)"/>
<path d="M0 0 C3.93673644 1.31224548 6.22719294 2.91910327 9 6 C5.57318882 7.10867421 4.17896517 7.06883276 0.75 5.75 C-2 4 -2 4 -3 1 C-2.34 1 -1.68 1 -1 1 C-1 1.66 -1 2.32 -1 3 C-0.34 3 0.32 3 1 3 C0.67 2.01 0.34 1.02 0 0 Z " fill="#FDDC39" transform="translate(344,137)"/>
<path d="M0 0 C0.33 0.99 0.66 1.98 1 3 C0.175 3.763125 -0.65 4.52625 -1.5 5.3125 C-4.34055197 7.75434142 -4.34055197 7.75434142 -4 11 C-5.98 11.66 -7.96 12.32 -10 13 C-7.02480663 8.30834891 -3.68606635 4.15296809 0 0 Z " fill="#FADE38" transform="translate(157,164)"/>
<path d="M0 0 C4.98012761 1.50912958 8.24259942 4.55661849 12 8 C11.01 8.33 10.02 8.66 9 9 C9 8.34 9 7.68 9 7 C7.68 7.99 6.36 8.98 5 10 C4.34 9.34 3.68 8.68 3 8 C3.66 7.34 4.32 6.68 5 6 C4.67 5.01 4.34 4.02 4 3 C2.68 3 1.36 3 0 3 C0 2.01 0 1.02 0 0 Z " fill="#FBDD3F" transform="translate(353,143)"/>
<path d="M0 0 C0.33 0 0.66 0 1 0 C1.09375315 4.98975076 1.09676756 9.96080644 0.6875 14.9375 C0.62949219 15.64777344 0.57148438 16.35804688 0.51171875 17.08984375 C-0.11920614 19.44497557 -1.17125165 20.43600342 -3 22 C-2.11796547 14.64971227 -1.05987432 7.32650983 0 0 Z " fill="#FED317" transform="translate(395,280)"/>
<path d="M0 0 C2.10827055 3.16240582 2.33817465 4.50657469 2.625 8.1875 C2.69976562 9.08855469 2.77453125 9.98960937 2.8515625 10.91796875 C2.90054688 11.60503906 2.94953125 12.29210937 3 13 C1.68 12.67 0.36 12.34 -1 12 C-0.67 8.04 -0.34 4.08 0 0 Z " fill="#FCDA2B" transform="translate(119,238)"/>
<path d="M0 0 C1.32 0 2.64 0 4 0 C4 0.66 4 1.32 4 2 C4.66 2 5.32 2 6 2 C6.33 3.32 6.66 4.64 7 6 C5.35 6.66 3.7 7.32 2 8 C2 7.01 2 6.02 2 5 C1.67 4.67 1.34 4.34 1 4 C0.63837971 2.67405895 0.30271961 1.34061543 0 0 Z " fill="#FED712" transform="translate(355,379)"/>
<path d="M0 0 C0 0.66 0 1.32 0 2 C-0.66 2 -1.32 2 -2 2 C-2.33 3.32 -2.66 4.64 -3 6 C-4.98 4.68 -6.96 3.36 -9 2 C-5.86501708 0.14223235 -3.62528568 -0.20140476 0 0 Z " fill="#FBD920" transform="translate(179,381)"/>
<path d="M0 0 C0.99 0 1.98 0 3 0 C3 0.66 3 1.32 3 2 C3.66 2 4.32 2 5 2 C5 3.65 5 5.3 5 7 C2.03 6.505 2.03 6.505 -1 6 C-0.67 4.02 -0.34 2.04 0 0 Z " fill="#FED712" transform="translate(133,203)"/>
<path d="M0 0 C0.99 0.33 1.98 0.66 3 1 C1.34832443 4.5786304 -0.78286492 7.74820188 -3 11 C-3.66 10.01 -4.32 9.02 -5 8 C-4.01 7.67 -3.02 7.34 -2 7 C-1.855625 6.030625 -1.71125 5.06125 -1.5625 4.0625 C-1 1 -1 1 0 0 Z " fill="#FADD32" transform="translate(390,351)"/>
<path d="M0 0 C1.21065165 3.63195496 0.62784815 5.06531629 -0.4375 8.6875 C-0.72496094 9.68136719 -1.01242187 10.67523438 -1.30859375 11.69921875 C-1.53675781 12.45847656 -1.76492188 13.21773438 -2 14 C-3 12 -4 10 -5 8 C-4.34 8 -3.68 8 -3 8 C-2.87625 7.4225 -2.7525 6.845 -2.625 6.25 C-1.99351176 3.97664233 -1.11141809 2.0746471 0 0 Z " fill="#FADF44" transform="translate(415,299)"/>
<path d="M0 0 C0.66 0.33 1.32 0.66 2 1 C-0.38957269 4.24299151 -2.2047869 6.50902342 -6 8 C-6.99 7.34 -7.98 6.68 -9 6 C-6.03 4.02 -3.06 2.04 0 0 Z " fill="#FBDE3A" transform="translate(192,136)"/>
<path d="M0 0 C0.99 0.33 1.98 0.66 3 1 C0.19527484 4.29967665 -3.16918209 6.08459104 -7 8 C-7.99 7.67 -8.98 7.34 -10 7 C-9.360625 6.896875 -8.72125 6.79375 -8.0625 6.6875 C-7.381875 6.460625 -6.70125 6.23375 -6 6 C-5.67 5.01 -5.34 4.02 -5 3 C-2.4375 1.8125 -2.4375 1.8125 0 1 C0 0.67 0 0.34 0 0 Z " fill="#FCDE41" transform="translate(347,393)"/>
<path d="M0 0 C-0.33 1.32 -0.66 2.64 -1 4 C-3 4 -5 4 -7 4 C-6.67 2.68 -6.34 1.36 -6 0 C-2.25 -1.125 -2.25 -1.125 0 0 Z " fill="#FED713" transform="translate(138,323)"/>
<path d="M0 0 C3.98175544 2.10148204 6.35039045 4.36905358 9 8 C7.35 8.33 5.7 8.66 4 9 C3.34 6.69 2.68 4.38 2 2 C1.34 2 0.68 2 0 2 C0 1.34 0 0.68 0 0 Z " fill="#FBDF3F" transform="translate(365,152)"/>
<path d="M0 0 C3.3 0.33 6.6 0.66 10 1 C6.31265242 3.45823172 3.30300029 4.01242616 -1 5 C-0.67 3.35 -0.34 1.7 0 0 Z " fill="#FBDE3A" transform="translate(313,407)"/>
<path d="M0 0 C4.29 0 8.58 0 13 0 C12.01 0.495 12.01 0.495 11 1 C10.67 1.99 10.34 2.98 10 4 C6.7 3.01 3.4 2.02 0 1 C0 0.67 0 0.34 0 0 Z " fill="#FED615" transform="translate(276,412)"/>
<path d="M0 0 C0.680625 0.165 1.36125 0.33 2.0625 0.5 C5.4164822 1.07089059 8.60389805 1.06659023 12 1 C8.17482487 3.39073445 4.40334476 3.55966552 0 4 C0 2.68 0 1.36 0 0 Z " fill="#FADD38" transform="translate(299,411)"/>
<path d="M0 0 C0.66 0.99 1.32 1.98 2 3 C1.67 3.66 1.34 4.32 1 5 C1.66 5.33 2.32 5.66 3 6 C-1.05431692 7.15837626 -3.21812119 6.83691257 -7 5 C-7 4.67 -7 4.34 -7 4 C-4.69 4 -2.38 4 0 4 C0 2.68 0 1.36 0 0 Z " fill="#FBDB2C" transform="translate(224,405)"/>
<path d="M0 0 C0.66 0 1.32 0 2 0 C0.79157144 4.43090471 -0.51668565 6.98112756 -4 10 C-4 7.69 -4 5.38 -4 3 C-3.67 3.66 -3.34 4.32 -3 5 C-2.54625 4.175 -2.0925 3.35 -1.625 2.5 C-1.08875 1.675 -0.5525 0.85 0 0 Z " fill="#FBDC36" transform="translate(400,337)"/>
<path d="M0 0 C0.99 0.33 1.98 0.66 3 1 C3.33 3.31 3.66 5.62 4 8 C2.02 7.34 0.04 6.68 -2 6 C-1.34 4.02 -0.68 2.04 0 0 Z " fill="#FDD71F" transform="translate(159,162)"/>
<path d="M0 0 C3 1 3 1 5 4 C1.8035914 5.06546953 -0.65747276 5.07427838 -4 5 C-2.68 3.35 -1.36 1.7 0 0 Z " fill="#FCDB29" transform="translate(164,157)"/>
<path d="M0 0 C2.4375 0.8125 2.4375 0.8125 4.4375 3.8125 C0.26162255 5.20445915 -1.69724776 3.63573219 -5.5625 1.8125 C-2.5625 -0.1875 -2.5625 -0.1875 0 0 Z " fill="#FBDA2B" transform="translate(209.5625,403.1875)"/>
<path d="M0 0 C0 3.93169105 -1.39419615 5.16427228 -4 8 C-4.66 8 -5.32 8 -6 8 C-6 8.66 -6 9.32 -6 10 C-6.99 9.67 -7.98 9.34 -9 9 C-6.03 6.03 -3.06 3.06 0 0 Z " fill="#FED515" transform="translate(363,353)"/>
<path d="M0 0 C2.02350324 3.03525486 2.32124018 4.19426202 2.625 7.6875 C2.69976562 8.49574219 2.77453125 9.30398437 2.8515625 10.13671875 C2.90054687 10.75160156 2.94953125 11.36648437 3 12 C0 10 0 10 -0.546875 7.87109375 C-0.61390625 7.06800781 -0.6809375 6.26492187 -0.75 5.4375 C-0.86601562 4.22900391 -0.86601562 4.22900391 -0.984375 2.99609375 C-0.98953125 2.33738281 -0.9946875 1.67867187 -1 1 C-0.67 0.67 -0.34 0.34 0 0 Z " fill="#FBDE35" transform="translate(414,230)"/>
<path d="M0 0 C0.495 0.309375 0.99 0.61875 1.5 0.9375 C4.97986781 2.41644382 8.24028509 2.62402851 12 3 C12 3.33 12 3.66 12 4 C6.06 4.495 6.06 4.495 0 5 C0 3.35 0 1.7 0 0 Z " fill="#FED616" transform="translate(339,141)"/>
<path d="M0 0 C2.31 0.33 4.62 0.66 7 1 C7 1.66 7 2.32 7 3 C6.34 3 5.68 3 5 3 C5.33 3.99 5.66 4.98 6 6 C5.01 6.495 5.01 6.495 4 7 C0 2.25 0 2.25 0 0 Z " fill="#FCD92A" transform="translate(146,356)"/>
<path d="M0 0 C0.66 0.33 1.32 0.66 2 1 C1.44894091 4.9492568 0.61064629 8.34920174 -1 12 C-1.33 12 -1.66 12 -2 12 C-1.85831863 10.56208484 -1.71148957 9.1246763 -1.5625 7.6875 C-1.48128906 6.88699219 -1.40007812 6.08648437 -1.31640625 5.26171875 C-1 3 -1 3 0 0 Z " fill="#FBDC3B" transform="translate(410,312)"/>
<path d="M0 0 C2.96404505 2.80804268 5.44499019 5.18315774 7 9 C6.01 9 5.02 9 4 9 C0 2.25 0 2.25 0 0 Z " fill="#FADF40" transform="translate(385,172)"/>
<path d="M0 0 C0.97983761 3.04838368 1.21704816 5.00418914 0 8 C-2.0625 10.25 -2.0625 10.25 -4 12 C-3.33501617 7.61110675 -1.81242323 4.0188515 0 0 Z " fill="#FED416" transform="translate(387,314)"/>
<path d="M0 0 C3.45925163 1.2491742 6.14693203 2.67527795 9 5 C7.02 5 5.04 5 3 5 C2.67 4.01 2.34 3.02 2 2 C1.01 1.67 0.02 1.34 -1 1 C-0.67 0.67 -0.34 0.34 0 0 Z " fill="#FBDF48" transform="translate(335,132)"/>
<path d="M0 0 C1.65 0.33 3.3 0.66 5 1 C3.71034824 2.37562854 2.37310707 3.70766393 1 5 C0.34 5 -0.32 5 -1 5 C-0.67 3.35 -0.34 1.7 0 0 Z " fill="#FCDD37" transform="translate(351,389)"/>
<path d="M0 0 C0.99 0 1.98 0 3 0 C2.8125 1.8125 2.8125 1.8125 2 4 C-0.5625 5.75 -0.5625 5.75 -3 7 C-2.625 5.0625 -2.625 5.0625 -2 3 C-1.34 2.67 -0.68 2.34 0 2 C0 1.34 0 0.68 0 0 Z " fill="#FBDD37" transform="translate(361,382)"/>
<path d="M0 0 C0.99 0.33 1.98 0.66 3 1 C1.25 6.75 1.25 6.75 -1 9 C-0.67 6.03 -0.34 3.06 0 0 Z " fill="#FBDE35" transform="translate(403,328)"/>
<path d="M0 0 C1.65 0 3.3 0 5 0 C5 0.99 5 1.98 5 3 C4.34 3.66 3.68 4.32 3 5 C2.01 4.67 1.02 4.34 0 4 C0 2.68 0 1.36 0 0 Z " fill="#FDD80C" transform="translate(123,225)"/>
<path d="M0 0 C4.05606165 0.46800711 7.46588679 0.87953208 11 3 C9.35 3.33 7.7 3.66 6 4 C6 3.34 6 2.68 6 2 C5.01 2.33 4.02 2.66 3 3 C2.01 2.67 1.02 2.34 0 2 C0 1.34 0 0.68 0 0 Z " fill="#FAE257" transform="translate(304,121)"/>
<path d="M0 0 C1.98 0.66 3.96 1.32 6 2 C5.34 3.32 4.68 4.64 4 6 C2.62437146 4.71034824 1.29233607 3.37310707 0 2 C0 1.34 0 0.68 0 0 Z " fill="#FED616" transform="translate(371,190)"/>
<path d="M0 0 C0.66 0.33 1.32 0.66 2 1 C2.33 1.99 2.66 2.98 3 4 C0.69 3.67 -1.62 3.34 -4 3 C-2.68 2.01 -1.36 1.02 0 0 Z " fill="#FCDB35" transform="translate(198,133)"/>
</svg>
